{
	"asset":{
		"generator":"Khronos glTF Blender I/O v5.1.20",
		"version":"2.0"
	},
	"scene":0,
	"scenes":[
		{
			"name":"Scene",
			"nodes":[
				0,
				1,
				2,
				3,
				4,
				5,
				6,
				7,
				8,
				9,
				10,
				11,
				12,
				13,
				14,
				15,
				16,
				17,
				18,
				19,
				20,
				21,
				22,
				23,
				24,
				25,
				26,
				27,
				28,
				29,
				30,
				31,
				32,
				33,
				34,
				35,
				36,
				37,
				38,
				39,
				40,
				41,
				42,
				43,
				44,
				45,
				46,
				47
			]
		}
	],
	"nodes":[
		{
			"mesh":0,
			"name":"ground"
		},
		{
			"mesh":1,
			"name":"stairs"
		},
		{
			"mesh":2,
			"name":"player"
		},
		{
			"name":"B\u00e9zierCurve",
			"translation":[
				1,
				-0.5,
				-12
			]
		},
		{
			"name":"B\u00e9zierCurve.001",
			"translation":[
				1,
				-0.5,
				-12
			]
		},
		{
			"mesh":3,
			"name":"table1"
		},
		{
			"mesh":4,
			"name":"table1.001"
		},
		{
			"mesh":5,
			"name":"table1.002"
		},
		{
			"mesh":6,
			"name":"Plane"
		},
		{
			"mesh":7,
			"name":"Cube"
		},
		{
			"mesh":8,
			"name":"Cube.001"
		},
		{
			"mesh":9,
			"name":"Cube.002"
		},
		{
			"mesh":10,
			"name":"Plane.001"
		},
		{
			"mesh":11,
			"name":"Plane.002"
		},
		{
			"mesh":12,
			"name":"Plane.003"
		},
		{
			"mesh":13,
			"name":"Plane.004"
		},
		{
			"mesh":14,
			"name":"Cube.003"
		},
		{
			"mesh":15,
			"name":"Cube.004"
		},
		{
			"mesh":16,
			"name":"Plane.005"
		},
		{
			"mesh":17,
			"name":"Plane.006"
		},
		{
			"mesh":18,
			"name":"Plane.007"
		},
		{
			"mesh":19,
			"name":"Plane.008"
		},
		{
			"mesh":20,
			"name":"Cube.005"
		},
		{
			"mesh":21,
			"name":"Plane.009"
		},
		{
			"mesh":22,
			"name":"Plane.010"
		},
		{
			"mesh":23,
			"name":"Plane.011"
		},
		{
			"mesh":24,
			"name":"Plane.012"
		},
		{
			"mesh":25,
			"name":"Plane.013"
		},
		{
			"mesh":26,
			"name":"Plane.014"
		},
		{
			"mesh":27,
			"name":"Plane.015"
		},
		{
			"mesh":28,
			"name":"Plane.016"
		},
		{
			"mesh":29,
			"name":"Plane.017"
		},
		{
			"mesh":30,
			"name":"Plane.018"
		},
		{
			"mesh":31,
			"name":"Plane.019"
		},
		{
			"mesh":32,
			"name":"Plane.020"
		},
		{
			"mesh":33,
			"name":"Plane.021"
		},
		{
			"mesh":34,
			"name":"Plane.022"
		},
		{
			"mesh":35,
			"name":"Plane.023"
		},
		{
			"mesh":36,
			"name":"Plane.024"
		},
		{
			"mesh":37,
			"name":"Plane.025"
		},
		{
			"mesh":38,
			"name":"Plane.026"
		},
		{
			"mesh":39,
			"name":"Plane.027"
		},
		{
			"mesh":40,
			"name":"Plane.028"
		},
		{
			"mesh":41,
			"name":"Plane.029"
		},
		{
			"mesh":42,
			"name":"Cube.006"
		},
		{
			"mesh":43,
			"name":"Cube.007"
		},
		{
			"mesh":44,
			"name":"Cube.008"
		},
		{
			"mesh":45,
			"name":"Cube.009"
		}
	],
	"materials":[
		{
			"doubleSided":true,
			"name":"playersize",
			"pbrMetallicRoughness":{
				"baseColorFactor":[
					0.8000074625015259,
					0,
					0.0019162074895575643,
					1
				],
				"metallicFactor":0,
				"roughnessFactor":0.5
			}
		},
		{
			"doubleSided":true,
			"name":"ROCKS",
			"pbrMetallicRoughness":{
				"baseColorFactor":[
					0.1364423781633377,
					0.1364423781633377,
					0.1364423781633377,
					1
				],
				"metallicFactor":0.4384615421295166,
				"roughnessFactor":0.8307692408561707
			}
		}
	],
	"meshes":[
		{
			"name":"Plane",
			"primitives":[
				{
					"attributes":{
						"POSITION":0,
						"NORMAL":1,
						"TEXCOORD_0":2
					},
					"indices":3
				}
			]
		},
		{
			"name":"Plane.001",
			"primitives":[
				{
					"attributes":{
						"POSITION":4,
						"NORMAL":5,
						"TEXCOORD_0":6
					},
					"indices":7
				}
			]
		},
		{
			"name":"Cylinder",
			"primitives":[
				{
					"attributes":{
						"POSITION":8,
						"NORMAL":9,
						"TEXCOORD_0":10
					},
					"indices":11,
					"material":0
				}
			]
		},
		{
			"name":"Cylinder.001",
			"primitives":[
				{
					"attributes":{
						"POSITION":12,
						"NORMAL":13,
						"TEXCOORD_0":14
					},
					"indices":15
				}
			]
		},
		{
			"name":"Cylinder.002",
			"primitives":[
				{
					"attributes":{
						"POSITION":16,
						"NORMAL":17,
						"TEXCOORD_0":18
					},
					"indices":15
				}
			]
		},
		{
			"name":"Cylinder.003",
			"primitives":[
				{
					"attributes":{
						"POSITION":19,
						"NORMAL":20,
						"TEXCOORD_0":21
					},
					"indices":15
				}
			]
		},
		{
			"name":"Plane.002",
			"primitives":[
				{
					"attributes":{
						"POSITION":22,
						"NORMAL":23,
						"TEXCOORD_0":24
					},
					"indices":25,
					"material":1
				}
			]
		},
		{
			"name":"Cube.001",
			"primitives":[
				{
					"attributes":{
						"POSITION":26,
						"NORMAL":27,
						"TEXCOORD_0":28
					},
					"indices":29,
					"material":1
				}
			]
		},
		{
			"name":"Cube.002",
			"primitives":[
				{
					"attributes":{
						"POSITION":30,
						"NORMAL":31,
						"TEXCOORD_0":32
					},
					"indices":33,
					"material":1
				}
			]
		},
		{
			"name":"Cube.003",
			"primitives":[
				{
					"attributes":{
						"POSITION":34,
						"NORMAL":35,
						"TEXCOORD_0":36
					},
					"indices":37,
					"material":1
				}
			]
		},
		{
			"name":"Plane.003",
			"primitives":[
				{
					"attributes":{
						"POSITION":38,
						"NORMAL":39,
						"TEXCOORD_0":40
					},
					"indices":41
				}
			]
		},
		{
			"name":"Plane.004",
			"primitives":[
				{
					"attributes":{
						"POSITION":42,
						"NORMAL":43,
						"TEXCOORD_0":44
					},
					"indices":41
				}
			]
		},
		{
			"name":"Plane.005",
			"primitives":[
				{
					"attributes":{
						"POSITION":45,
						"NORMAL":46,
						"TEXCOORD_0":47
					},
					"indices":41
				}
			]
		},
		{
			"name":"Plane.006",
			"primitives":[
				{
					"attributes":{
						"POSITION":48,
						"NORMAL":49,
						"TEXCOORD_0":50
					},
					"indices":41
				}
			]
		},
		{
			"name":"Cube.004",
			"primitives":[
				{
					"attributes":{
						"POSITION":51,
						"NORMAL":52,
						"TEXCOORD_0":53
					},
					"indices":54
				}
			]
		},
		{
			"name":"Cube.005",
			"primitives":[
				{
					"attributes":{
						"POSITION":55,
						"NORMAL":56,
						"TEXCOORD_0":57
					},
					"indices":58
				}
			]
		},
		{
			"name":"Plane.007",
			"primitives":[
				{
					"attributes":{
						"POSITION":59,
						"NORMAL":60,
						"TEXCOORD_0":61
					},
					"indices":41
				}
			]
		},
		{
			"name":"Plane.008",
			"primitives":[
				{
					"attributes":{
						"POSITION":62,
						"NORMAL":63,
						"TEXCOORD_0":64
					},
					"indices":41
				}
			]
		},
		{
			"name":"Plane.009",
			"primitives":[
				{
					"attributes":{
						"POSITION":65,
						"NORMAL":66,
						"TEXCOORD_0":67
					},
					"indices":41
				}
			]
		},
		{
			"name":"Plane.010",
			"primitives":[
				{
					"attributes":{
						"POSITION":68,
						"NORMAL":69,
						"TEXCOORD_0":70
					},
					"indices":41
				}
			]
		},
		{
			"name":"Cube",
			"primitives":[
				{
					"attributes":{
						"POSITION":71,
						"NORMAL":72,
						"TEXCOORD_0":73
					},
					"indices":74
				}
			]
		},
		{
			"name":"Plane.011",
			"primitives":[
				{
					"attributes":{
						"POSITION":75,
						"NORMAL":76,
						"TEXCOORD_0":77
					},
					"indices":41
				}
			]
		},
		{
			"name":"Plane.012",
			"primitives":[
				{
					"attributes":{
						"POSITION":78,
						"NORMAL":79,
						"TEXCOORD_0":80
					},
					"indices":41
				}
			]
		},
		{
			"name":"Plane.013",
			"primitives":[
				{
					"attributes":{
						"POSITION":81,
						"NORMAL":82,
						"TEXCOORD_0":83
					},
					"indices":41
				}
			]
		},
		{
			"name":"Plane.014",
			"primitives":[
				{
					"attributes":{
						"POSITION":84,
						"NORMAL":85,
						"TEXCOORD_0":86
					},
					"indices":41
				}
			]
		},
		{
			"name":"Plane.015",
			"primitives":[
				{
					"attributes":{
						"POSITION":87,
						"NORMAL":88,
						"TEXCOORD_0":89
					},
					"indices":41
				}
			]
		},
		{
			"name":"Plane.016",
			"primitives":[
				{
					"attributes":{
						"POSITION":90,
						"NORMAL":91,
						"TEXCOORD_0":92
					},
					"indices":41
				}
			]
		},
		{
			"name":"Plane.017",
			"primitives":[
				{
					"attributes":{
						"POSITION":93,
						"NORMAL":94,
						"TEXCOORD_0":95
					},
					"indices":41
				}
			]
		},
		{
			"name":"Plane.018",
			"primitives":[
				{
					"attributes":{
						"POSITION":96,
						"NORMAL":97,
						"TEXCOORD_0":98
					},
					"indices":41
				}
			]
		},
		{
			"name":"Plane.019",
			"primitives":[
				{
					"attributes":{
						"POSITION":99,
						"NORMAL":100,
						"TEXCOORD_0":101
					},
					"indices":102,
					"material":1
				}
			]
		},
		{
			"name":"Plane.020",
			"primitives":[
				{
					"attributes":{
						"POSITION":103,
						"NORMAL":104,
						"TEXCOORD_0":105
					},
					"indices":106,
					"material":1
				}
			]
		},
		{
			"name":"Plane.021",
			"primitives":[
				{
					"attributes":{
						"POSITION":107,
						"NORMAL":108,
						"TEXCOORD_0":109
					},
					"indices":41
				}
			]
		},
		{
			"name":"Plane.022",
			"primitives":[
				{
					"attributes":{
						"POSITION":110,
						"NORMAL":111,
						"TEXCOORD_0":112
					},
					"indices":41
				}
			]
		},
		{
			"name":"Plane.023",
			"primitives":[
				{
					"attributes":{
						"POSITION":113,
						"NORMAL":114,
						"TEXCOORD_0":115
					},
					"indices":41
				}
			]
		},
		{
			"name":"Plane.024",
			"primitives":[
				{
					"attributes":{
						"POSITION":116,
						"NORMAL":117,
						"TEXCOORD_0":118
					},
					"indices":41
				}
			]
		},
		{
			"name":"Plane.025",
			"primitives":[
				{
					"attributes":{
						"POSITION":119,
						"NORMAL":120,
						"TEXCOORD_0":121
					},
					"indices":41
				}
			]
		},
		{
			"name":"Plane.026",
			"primitives":[
				{
					"attributes":{
						"POSITION":122,
						"NORMAL":123,
						"TEXCOORD_0":124
					},
					"indices":41
				}
			]
		},
		{
			"name":"Plane.027",
			"primitives":[
				{
					"attributes":{
						"POSITION":125,
						"NORMAL":126,
						"TEXCOORD_0":127
					},
					"indices":41
				}
			]
		},
		{
			"name":"Plane.028",
			"primitives":[
				{
					"attributes":{
						"POSITION":128,
						"NORMAL":129,
						"TEXCOORD_0":130
					},
					"indices":131,
					"material":1
				}
			]
		},
		{
			"name":"Plane.029",
			"primitives":[
				{
					"attributes":{
						"POSITION":132,
						"NORMAL":133,
						"TEXCOORD_0":134
					},
					"indices":135,
					"material":1
				}
			]
		},
		{
			"name":"Plane.030",
			"primitives":[
				{
					"attributes":{
						"POSITION":136,
						"NORMAL":137,
						"TEXCOORD_0":138
					},
					"indices":139,
					"material":1
				}
			]
		},
		{
			"name":"Plane.031",
			"primitives":[
				{
					"attributes":{
						"POSITION":140,
						"NORMAL":141,
						"TEXCOORD_0":142
					},
					"indices":143
				}
			]
		},
		{
			"name":"Cube.006",
			"primitives":[
				{
					"attributes":{
						"POSITION":144,
						"NORMAL":145,
						"TEXCOORD_0":146
					},
					"indices":74
				}
			]
		},
		{
			"name":"Cube.007",
			"primitives":[
				{
					"attributes":{
						"POSITION":147,
						"NORMAL":148,
						"TEXCOORD_0":149
					},
					"indices":150
				}
			]
		},
		{
			"name":"Cube.008",
			"primitives":[
				{
					"attributes":{
						"POSITION":151,
						"NORMAL":152,
						"TEXCOORD_0":153
					},
					"indices":74
				}
			]
		},
		{
			"name":"Cube.009",
			"primitives":[
				{
					"attributes":{
						"POSITION":154,
						"NORMAL":155,
						"TEXCOORD_0":156
					},
					"indices":150
				}
			]
		}
	],
	"accessors":[
		{
			"bufferView":0,
			"componentType":5126,
			"count":878,
			"max":[
				14.120509147644043,
				2.859391689300537,
				-0.3439145088195801
			],
			"min":[
				-1.2999999523162842,
				-0.5284356474876404,
				-21.213756561279297
			],
			"type":"VEC3"
		},
		{
			"bufferView":1,
			"componentType":5126,
			"count":878,
			"type":"VEC3"
		},
		{
			"bufferView":2,
			"componentType":5126,
			"count":878,
			"type":"VEC2"
		},
		{
			"bufferView":3,
			"componentType":5123,
			"count":1707,
			"type":"SCALAR"
		},
		{
			"bufferView":4,
			"componentType":5126,
			"count":72,
			"max":[
				1,
				1,
				0
			],
			"min":[
				0,
				0,
				-1.9999998807907104
			],
			"type":"VEC3"
		},
		{
			"bufferView":5,
			"componentType":5126,
			"count":72,
			"type":"VEC3"
		},
		{
			"bufferView":6,
			"componentType":5126,
			"count":72,
			"type":"VEC2"
		},
		{
			"bufferView":7,
			"componentType":5123,
			"count":168,
			"type":"SCALAR"
		},
		{
			"bufferView":8,
			"componentType":5126,
			"count":192,
			"max":[
				16.83549690246582,
				2.780933380126953,
				-7.417818546295166
			],
			"min":[
				16.33549690246582,
				0.7809332609176636,
				-7.917818546295166
			],
			"type":"VEC3"
		},
		{
			"bufferView":9,
			"componentType":5126,
			"count":192,
			"type":"VEC3"
		},
		{
			"bufferView":10,
			"componentType":5126,
			"count":192,
			"type":"VEC2"
		},
		{
			"bufferView":11,
			"componentType":5123,
			"count":372,
			"type":"SCALAR"
		},
		{
			"bufferView":12,
			"componentType":5126,
			"count":192,
			"max":[
				12.721458435058594,
				-0.016951486468315125,
				-12.755681037902832
			],
			"min":[
				11.555702209472656,
				-0.44962817430496216,
				-13.92143726348877
			],
			"type":"VEC3"
		},
		{
			"bufferView":13,
			"componentType":5126,
			"count":192,
			"type":"VEC3"
		},
		{
			"bufferView":14,
			"componentType":5126,
			"count":192,
			"type":"VEC2"
		},
		{
			"bufferView":15,
			"componentType":5123,
			"count":372,
			"type":"SCALAR"
		},
		{
			"bufferView":16,
			"componentType":5126,
			"count":192,
			"max":[
				9.654986381530762,
				-0.016951486468315125,
				-12.755681037902832
			],
			"min":[
				8.489230155944824,
				-0.44962817430496216,
				-13.92143726348877
			],
			"type":"VEC3"
		},
		{
			"bufferView":17,
			"componentType":5126,
			"count":192,
			"type":"VEC3"
		},
		{
			"bufferView":18,
			"componentType":5126,
			"count":192,
			"type":"VEC2"
		},
		{
			"bufferView":19,
			"componentType":5126,
			"count":192,
			"max":[
				11.372238159179688,
				-0.016951486468315125,
				-14.860076904296875
			],
			"min":[
				10.20648193359375,
				-0.44962817430496216,
				-16.025833129882812
			],
			"type":"VEC3"
		},
		{
			"bufferView":20,
			"componentType":5126,
			"count":192,
			"type":"VEC3"
		},
		{
			"bufferView":21,
			"componentType":5126,
			"count":192,
			"type":"VEC2"
		},
		{
			"bufferView":22,
			"componentType":5126,
			"count":4736,
			"max":[
				31.700481414794922,
				22.238405227661133,
				22.331790924072266
			],
			"min":[
				-4.73319149017334,
				-5.499005317687988,
				-3.3894834518432617
			],
			"type":"VEC3"
		},
		{
			"bufferView":23,
			"componentType":5126,
			"count":4736,
			"type":"VEC3"
		},
		{
			"bufferView":24,
			"componentType":5126,
			"count":4736,
			"type":"VEC2"
		},
		{
			"bufferView":25,
			"componentType":5123,
			"count":4764,
			"type":"SCALAR"
		},
		{
			"bufferView":26,
			"componentType":5126,
			"count":325,
			"max":[
				35.738121032714844,
				11.896809577941895,
				18.301403045654297
			],
			"min":[
				27.08472442626953,
				3.211109161376953,
				4.8982086181640625
			],
			"type":"VEC3"
		},
		{
			"bufferView":27,
			"componentType":5126,
			"count":325,
			"type":"VEC3"
		},
		{
			"bufferView":28,
			"componentType":5126,
			"count":325,
			"type":"VEC2"
		},
		{
			"bufferView":29,
			"componentType":5123,
			"count":576,
			"type":"SCALAR"
		},
		{
			"bufferView":30,
			"componentType":5126,
			"count":446,
			"max":[
				15.747562408447266,
				13.286075592041016,
				19.347896575927734
			],
			"min":[
				6.180359840393066,
				4.976275444030762,
				8.314001083374023
			],
			"type":"VEC3"
		},
		{
			"bufferView":31,
			"componentType":5126,
			"count":446,
			"type":"VEC3"
		},
		{
			"bufferView":32,
			"componentType":5126,
			"count":446,
			"type":"VEC2"
		},
		{
			"bufferView":33,
			"componentType":5123,
			"count":576,
			"type":"SCALAR"
		},
		{
			"bufferView":34,
			"componentType":5126,
			"count":325,
			"max":[
				3.6262362003326416,
				12.853014945983887,
				16.708187103271484
			],
			"min":[
				-5.231084823608398,
				2.0927963256835938,
				7.875651836395264
			],
			"type":"VEC3"
		},
		{
			"bufferView":35,
			"componentType":5126,
			"count":325,
			"type":"VEC3"
		},
		{
			"bufferView":36,
			"componentType":5126,
			"count":325,
			"type":"VEC2"
		},
		{
			"bufferView":37,
			"componentType":5123,
			"count":576,
			"type":"SCALAR"
		},
		{
			"bufferView":38,
			"componentType":5126,
			"count":4,
			"max":[
				10.2865629196167,
				2.7643232345581055,
				5.67678165435791
			],
			"min":[
				8.2865629196167,
				-0.7653123140335083,
				-0.8015871047973633
			],
			"type":"VEC3"
		},
		{
			"bufferView":39,
			"componentType":5126,
			"count":4,
			"type":"VEC3"
		},
		{
			"bufferView":40,
			"componentType":5126,
			"count":4,
			"type":"VEC2"
		},
		{
			"bufferView":41,
			"componentType":5123,
			"count":6,
			"type":"SCALAR"
		},
		{
			"bufferView":42,
			"componentType":5126,
			"count":4,
			"max":[
				15.589272499084473,
				2.7765636444091797,
				8.667430877685547
			],
			"min":[
				8.156842231750488,
				2.741041660308838,
				5.65986442565918
			],
			"type":"VEC3"
		},
		{
			"bufferView":43,
			"componentType":5126,
			"count":4,
			"type":"VEC3"
		},
		{
			"bufferView":44,
			"componentType":5126,
			"count":4,
			"type":"VEC2"
		},
		{
			"bufferView":45,
			"componentType":5126,
			"count":4,
			"max":[
				21.012779235839844,
				2.802595853805542,
				9.234909057617188
			],
			"min":[
				13.317089080810547,
				2.7670738697052,
				2.670907735824585
			],
			"type":"VEC3"
		},
		{
			"bufferView":46,
			"componentType":5126,
			"count":4,
			"type":"VEC3"
		},
		{
			"bufferView":47,
			"componentType":5126,
			"count":4,
			"type":"VEC2"
		},
		{
			"bufferView":48,
			"componentType":5126,
			"count":4,
			"max":[
				9.479377746582031,
				2.7765636444091797,
				8.237401008605957
			],
			"min":[
				1.6064116954803467,
				2.741041660308838,
				2.313214063644409
			],
			"type":"VEC3"
		},
		{
			"bufferView":49,
			"componentType":5126,
			"count":4,
			"type":"VEC3"
		},
		{
			"bufferView":50,
			"componentType":5126,
			"count":4,
			"type":"VEC2"
		},
		{
			"bufferView":51,
			"componentType":5126,
			"count":40,
			"max":[
				15.826026916503906,
				14.260337829589844,
				5.166103839874268
			],
			"min":[
				10.332347869873047,
				-4.056961536407471,
				-0.32757568359375
			],
			"type":"VEC3"
		},
		{
			"bufferView":52,
			"componentType":5126,
			"count":40,
			"type":"VEC3"
		},
		{
			"bufferView":53,
			"componentType":5126,
			"count":40,
			"type":"VEC2"
		},
		{
			"bufferView":54,
			"componentType":5123,
			"count":72,
			"type":"SCALAR"
		},
		{
			"bufferView":55,
			"componentType":5126,
			"count":24,
			"max":[
				8.085344314575195,
				12.217352867126465,
				3.814042568206787
			],
			"min":[
				2.86859393119812,
				-2.782036781311035,
				-1.4027081727981567
			],
			"type":"VEC3"
		},
		{
			"bufferView":56,
			"componentType":5126,
			"count":24,
			"type":"VEC3"
		},
		{
			"bufferView":57,
			"componentType":5126,
			"count":24,
			"type":"VEC2"
		},
		{
			"bufferView":58,
			"componentType":5123,
			"count":36,
			"type":"SCALAR"
		},
		{
			"bufferView":59,
			"componentType":5126,
			"count":4,
			"max":[
				18.81348991394043,
				2.7973527908325195,
				5.009605407714844
			],
			"min":[
				15.516378402709961,
				2.7723169326782227,
				-0.4173564910888672
			],
			"type":"VEC3"
		},
		{
			"bufferView":60,
			"componentType":5126,
			"count":4,
			"type":"VEC3"
		},
		{
			"bufferView":61,
			"componentType":5126,
			"count":4,
			"type":"VEC2"
		},
		{
			"bufferView":62,
			"componentType":5126,
			"count":4,
			"max":[
				11.425182342529297,
				7.148078441619873,
				3.72540283203125
			],
			"min":[
				6.166423797607422,
				7.148078441619873,
				1.2409125566482544
			],
			"type":"VEC3"
		},
		{
			"bufferView":63,
			"componentType":5126,
			"count":4,
			"type":"VEC3"
		},
		{
			"bufferView":64,
			"componentType":5126,
			"count":4,
			"type":"VEC2"
		},
		{
			"bufferView":65,
			"componentType":5126,
			"count":4,
			"max":[
				11.072137832641602,
				7.38744592666626,
				3.804144859313965
			],
			"min":[
				5.813379287719727,
				4.902955532073975,
				3.804144859313965
			],
			"type":"VEC3"
		},
		{
			"bufferView":66,
			"componentType":5126,
			"count":4,
			"type":"VEC3"
		},
		{
			"bufferView":67,
			"componentType":5126,
			"count":4,
			"type":"VEC2"
		},
		{
			"bufferView":68,
			"componentType":5126,
			"count":4,
			"max":[
				11.273598670959473,
				8.928789138793945,
				0.7397580742835999
			],
			"min":[
				6.014840126037598,
				3.323690176010132,
				0.7397578358650208
			],
			"type":"VEC3"
		},
		{
			"bufferView":69,
			"componentType":5126,
			"count":4,
			"type":"VEC3"
		},
		{
			"bufferView":70,
			"componentType":5126,
			"count":4,
			"type":"VEC2"
		},
		{
			"bufferView":71,
			"componentType":5126,
			"count":24,
			"max":[
				15.8872709274292,
				14.434501647949219,
				-0.0939340591430664
			],
			"min":[
				14.158774375915527,
				-6.748829364776611,
				-17.11374282836914
			],
			"type":"VEC3"
		},
		{
			"bufferView":72,
			"componentType":5126,
			"count":24,
			"type":"VEC3"
		},
		{
			"bufferView":73,
			"componentType":5126,
			"count":24,
			"type":"VEC2"
		},
		{
			"bufferView":74,
			"componentType":5123,
			"count":36,
			"type":"SCALAR"
		},
		{
			"bufferView":75,
			"componentType":5126,
			"count":4,
			"max":[
				14.831130981445312,
				-0.5959886908531189,
				3.76704740524292
			],
			"min":[
				10.21687126159668,
				-0.5959886908531189,
				-0.8472113609313965
			],
			"type":"VEC3"
		},
		{
			"bufferView":76,
			"componentType":5126,
			"count":4,
			"type":"VEC3"
		},
		{
			"bufferView":77,
			"componentType":5126,
			"count":4,
			"type":"VEC2"
		},
		{
			"bufferView":78,
			"componentType":5126,
			"count":4,
			"max":[
				23.678173065185547,
				2.825632333755493,
				-0.10346770286560059
			],
			"min":[
				15.935550689697266,
				2.825632333755493,
				-7.8460893630981445
			],
			"type":"VEC3"
		},
		{
			"bufferView":79,
			"componentType":5126,
			"count":4,
			"type":"VEC3"
		},
		{
			"bufferView":80,
			"componentType":5126,
			"count":4,
			"type":"VEC2"
		},
		{
			"bufferView":81,
			"componentType":5126,
			"count":4,
			"max":[
				23.269445419311523,
				3.1184616088867188,
				1.907825231552124
			],
			"min":[
				22.154878616333008,
				1.7260627746582031,
				-0.6351943612098694
			],
			"type":"VEC3"
		},
		{
			"bufferView":82,
			"componentType":5126,
			"count":4,
			"type":"VEC3"
		},
		{
			"bufferView":83,
			"componentType":5126,
			"count":4,
			"type":"VEC2"
		},
		{
			"bufferView":84,
			"componentType":5126,
			"count":4,
			"max":[
				22.083173751831055,
				1.6952232122421265,
				2.921596050262451
			],
			"min":[
				19.13474464416504,
				0.08084678649902344,
				1.9047044515609741
			],
			"type":"VEC3"
		},
		{
			"bufferView":85,
			"componentType":5126,
			"count":4,
			"type":"VEC3"
		},
		{
			"bufferView":86,
			"componentType":5126,
			"count":4,
			"type":"VEC2"
		},
		{
			"bufferView":87,
			"componentType":5126,
			"count":4,
			"max":[
				23.25201988220215,
				1.714942455291748,
				2.890418291091919
			],
			"min":[
				22.093820571899414,
				1.714942455291748,
				1.7322185039520264
			],
			"type":"VEC3"
		},
		{
			"bufferView":88,
			"componentType":5126,
			"count":4,
			"type":"VEC3"
		},
		{
			"bufferView":89,
			"componentType":5126,
			"count":4,
			"type":"VEC2"
		},
		{
			"bufferView":90,
			"componentType":5126,
			"count":4,
			"max":[
				23.24557876586914,
				2.85713529586792,
				-0.06260674446821213
			],
			"min":[
				19.053668975830078,
				-0.16715705394744873,
				-0.06260687857866287
			],
			"type":"VEC3"
		},
		{
			"bufferView":91,
			"componentType":5126,
			"count":4,
			"type":"VEC3"
		},
		{
			"bufferView":92,
			"componentType":5126,
			"count":4,
			"type":"VEC2"
		},
		{
			"bufferView":93,
			"componentType":5126,
			"count":4,
			"max":[
				23.249197006225586,
				3.0938303470611572,
				2.9778013229370117
			],
			"min":[
				23.249197006225586,
				-2.1597321033477783,
				-0.04789865016937256
			],
			"type":"VEC3"
		},
		{
			"bufferView":94,
			"componentType":5126,
			"count":4,
			"type":"VEC3"
		},
		{
			"bufferView":95,
			"componentType":5126,
			"count":4,
			"type":"VEC2"
		},
		{
			"bufferView":96,
			"componentType":5126,
			"count":4,
			"max":[
				19.07318878173828,
				3.158620834350586,
				1.9201756715774536
			],
			"min":[
				19.07318878173828,
				-2.1511001586914062,
				-0.06079661846160889
			],
			"type":"VEC3"
		},
		{
			"bufferView":97,
			"componentType":5126,
			"count":4,
			"type":"VEC3"
		},
		{
			"bufferView":98,
			"componentType":5126,
			"count":4,
			"type":"VEC2"
		},
		{
			"bufferView":99,
			"componentType":5126,
			"count":8373,
			"max":[
				29.905710220336914,
				7.411646842956543,
				-0.1657404899597168
			],
			"min":[
				20.237247467041016,
				1.9601693153381348,
				-9.801490783691406
			],
			"type":"VEC3"
		},
		{
			"bufferView":100,
			"componentType":5126,
			"count":8373,
			"type":"VEC3"
		},
		{
			"bufferView":101,
			"componentType":5126,
			"count":8373,
			"type":"VEC2"
		},
		{
			"bufferView":102,
			"componentType":5123,
			"count":8373,
			"type":"SCALAR"
		},
		{
			"bufferView":103,
			"componentType":5126,
			"count":10151,
			"max":[
				27.78329849243164,
				8.884366035461426,
				-4.65135383605957
			],
			"min":[
				15.45488166809082,
				0.302748441696167,
				-14.081123352050781
			],
			"type":"VEC3"
		},
		{
			"bufferView":104,
			"componentType":5126,
			"count":10151,
			"type":"VEC3"
		},
		{
			"bufferView":105,
			"componentType":5126,
			"count":10151,
			"type":"VEC2"
		},
		{
			"bufferView":106,
			"componentType":5123,
			"count":10923,
			"type":"SCALAR"
		},
		{
			"bufferView":107,
			"componentType":5126,
			"count":4,
			"max":[
				20.295425415039062,
				-0.11106157302856445,
				-0.06260676681995392
			],
			"min":[
				19.082958221435547,
				-2.1110615730285645,
				-0.06260685622692108
			],
			"type":"VEC3"
		},
		{
			"bufferView":108,
			"componentType":5126,
			"count":4,
			"type":"VEC3"
		},
		{
			"bufferView":109,
			"componentType":5126,
			"count":4,
			"type":"VEC2"
		},
		{
			"bufferView":110,
			"componentType":5126,
			"count":4,
			"max":[
				23.24301528930664,
				-0.11267304420471191,
				-0.06260676681995392
			],
			"min":[
				22.030548095703125,
				-2.112673044204712,
				-0.06260685622692108
			],
			"type":"VEC3"
		},
		{
			"bufferView":111,
			"componentType":5126,
			"count":4,
			"type":"VEC3"
		},
		{
			"bufferView":112,
			"componentType":5126,
			"count":4,
			"type":"VEC2"
		},
		{
			"bufferView":113,
			"componentType":5126,
			"count":4,
			"max":[
				24.083711624145508,
				-1.9679715633392334,
				2.9210524559020996
			],
			"min":[
				18.830148696899414,
				-1.9679718017578125,
				-0.10464799404144287
			],
			"type":"VEC3"
		},
		{
			"bufferView":114,
			"componentType":5126,
			"count":4,
			"type":"VEC3"
		},
		{
			"bufferView":115,
			"componentType":5126,
			"count":4,
			"type":"VEC2"
		},
		{
			"bufferView":116,
			"componentType":5126,
			"count":4,
			"max":[
				19.07318878173828,
				14.595178604125977,
				16.673540115356445
			],
			"min":[
				19.07318878173828,
				2.7746753692626953,
				-0.17269325256347656
			],
			"type":"VEC3"
		},
		{
			"bufferView":117,
			"componentType":5126,
			"count":4,
			"type":"VEC3"
		},
		{
			"bufferView":118,
			"componentType":5126,
			"count":4,
			"type":"VEC2"
		},
		{
			"bufferView":119,
			"componentType":5126,
			"count":4,
			"max":[
				22.117780685424805,
				14.595178604125977,
				-0.06238025054335594
			],
			"min":[
				18.377599716186523,
				2.774674892425537,
				-0.062381986528635025
			],
			"type":"VEC3"
		},
		{
			"bufferView":120,
			"componentType":5126,
			"count":4,
			"type":"VEC3"
		},
		{
			"bufferView":121,
			"componentType":5126,
			"count":4,
			"type":"VEC2"
		},
		{
			"bufferView":122,
			"componentType":5126,
			"count":4,
			"max":[
				23.337234497070312,
				14.746002197265625,
				2.907823085784912
			],
			"min":[
				19.000137329101562,
				-11.191253662109375,
				2.907820701599121
			],
			"type":"VEC3"
		},
		{
			"bufferView":123,
			"componentType":5126,
			"count":4,
			"type":"VEC3"
		},
		{
			"bufferView":124,
			"componentType":5126,
			"count":4,
			"type":"VEC2"
		},
		{
			"bufferView":125,
			"componentType":5126,
			"count":4,
			"max":[
				22.22079086303711,
				-1.9679713249206543,
				-0.05267810821533203
			],
			"min":[
				20.693069458007812,
				-1.9679720401763916,
				-13.69333553314209
			],
			"type":"VEC3"
		},
		{
			"bufferView":126,
			"componentType":5126,
			"count":4,
			"type":"VEC3"
		},
		{
			"bufferView":127,
			"componentType":5126,
			"count":4,
			"type":"VEC2"
		},
		{
			"bufferView":128,
			"componentType":5126,
			"count":8371,
			"max":[
				34.57569885253906,
				10.814434051513672,
				-0.5553851127624512
			],
			"min":[
				23.31414031982422,
				2.2416915893554688,
				-12.856306076049805
			],
			"type":"VEC3"
		},
		{
			"bufferView":129,
			"componentType":5126,
			"count":8371,
			"type":"VEC3"
		},
		{
			"bufferView":130,
			"componentType":5126,
			"count":8371,
			"type":"VEC2"
		},
		{
			"bufferView":131,
			"componentType":5123,
			"count":8373,
			"type":"SCALAR"
		},
		{
			"bufferView":132,
			"componentType":5126,
			"count":8371,
			"max":[
				34.59406280517578,
				14.941514015197754,
				-4.835179805755615
			],
			"min":[
				15.873250961303711,
				2.648045063018799,
				-20.401268005371094
			],
			"type":"VEC3"
		},
		{
			"bufferView":133,
			"componentType":5126,
			"count":8371,
			"type":"VEC3"
		},
		{
			"bufferView":134,
			"componentType":5126,
			"count":8371,
			"type":"VEC2"
		},
		{
			"bufferView":135,
			"componentType":5123,
			"count":8373,
			"type":"SCALAR"
		},
		{
			"bufferView":136,
			"componentType":5126,
			"count":8371,
			"max":[
				34.22710418701172,
				15.725530624389648,
				-1.7971291542053223
			],
			"min":[
				28.155197143554688,
				5.307625770568848,
				-13.388044357299805
			],
			"type":"VEC3"
		},
		{
			"bufferView":137,
			"componentType":5126,
			"count":8371,
			"type":"VEC3"
		},
		{
			"bufferView":138,
			"componentType":5126,
			"count":8371,
			"type":"VEC2"
		},
		{
			"bufferView":139,
			"componentType":5123,
			"count":8373,
			"type":"SCALAR"
		},
		{
			"bufferView":140,
			"componentType":5126,
			"count":4,
			"max":[
				34.918312072753906,
				14.713821411132812,
				-2.7118353843688965
			],
			"min":[
				19.2476863861084,
				14.713821411132812,
				-18.591724395751953
			],
			"type":"VEC3"
		},
		{
			"bufferView":141,
			"componentType":5126,
			"count":4,
			"type":"VEC3"
		},
		{
			"bufferView":142,
			"componentType":5126,
			"count":4,
			"type":"VEC2"
		},
		{
			"bufferView":143,
			"componentType":5123,
			"count":6,
			"type":"SCALAR"
		},
		{
			"bufferView":144,
			"componentType":5126,
			"count":24,
			"max":[
				14.22508716583252,
				4.946109771728516,
				-0.1359729766845703
			],
			"min":[
				13.536147117614746,
				2.7395617961883545,
				-9.415977478027344
			],
			"type":"VEC3"
		},
		{
			"bufferView":145,
			"componentType":5126,
			"count":24,
			"type":"VEC3"
		},
		{
			"bufferView":146,
			"componentType":5126,
			"count":24,
			"type":"VEC2"
		},
		{
			"bufferView":147,
			"componentType":5126,
			"count":24,
			"max":[
				14.19865608215332,
				5.856160640716553,
				-0.1359729766845703
			],
			"min":[
				12.893556594848633,
				4.91175651550293,
				-9.415977478027344
			],
			"type":"VEC3"
		},
		{
			"bufferView":148,
			"componentType":5126,
			"count":24,
			"type":"VEC3"
		},
		{
			"bufferView":149,
			"componentType":5126,
			"count":24,
			"type":"VEC2"
		},
		{
			"bufferView":150,
			"componentType":5123,
			"count":36,
			"type":"SCALAR"
		},
		{
			"bufferView":151,
			"componentType":5126,
			"count":24,
			"max":[
				14.22508716583252,
				10.769739151000977,
				-0.1359729766845703
			],
			"min":[
				13.536147117614746,
				8.563190460205078,
				-9.415977478027344
			],
			"type":"VEC3"
		},
		{
			"bufferView":152,
			"componentType":5126,
			"count":24,
			"type":"VEC3"
		},
		{
			"bufferView":153,
			"componentType":5126,
			"count":24,
			"type":"VEC2"
		},
		{
			"bufferView":154,
			"componentType":5126,
			"count":24,
			"max":[
				14.19865608215332,
				11.679789543151855,
				-0.1359729766845703
			],
			"min":[
				12.893556594848633,
				10.735384941101074,
				-9.415977478027344
			],
			"type":"VEC3"
		},
		{
			"bufferView":155,
			"componentType":5126,
			"count":24,
			"type":"VEC3"
		},
		{
			"bufferView":156,
			"componentType":5126,
			"count":24,
			"type":"VEC2"
		}
	],
	"bufferViews":[
		{
			"buffer":0,
			"byteLength":10536,
			"byteOffset":0,
			"target":34962
		},
		{
			"buffer":0,
			"byteLength":10536,
			"byteOffset":10536,
			"target":34962
		},
		{
			"buffer":0,
			"byteLength":7024,
			"byteOffset":21072,
			"target":34962
		},
		{
			"buffer":0,
			"byteLength":3414,
			"byteOffset":28096,
			"target":34963
		},
		{
			"buffer":0,
			"byteLength":864,
			"byteOffset":31512,
			"target":34962
		},
		{
			"buffer":0,
			"byteLength":864,
			"byteOffset":32376,
			"target":34962
		},
		{
			"buffer":0,
			"byteLength":576,
			"byteOffset":33240,
			"target":34962
		},
		{
			"buffer":0,
			"byteLength":336,
			"byteOffset":33816,
			"target":34963
		},
		{
			"buffer":0,
			"byteLength":2304,
			"byteOffset":34152,
			"target":34962
		},
		{
			"buffer":0,
			"byteLength":2304,
			"byteOffset":36456,
			"target":34962
		},
		{
			"buffer":0,
			"byteLength":1536,
			"byteOffset":38760,
			"target":34962
		},
		{
			"buffer":0,
			"byteLength":744,
			"byteOffset":40296,
			"target":34963
		},
		{
			"buffer":0,
			"byteLength":2304,
			"byteOffset":41040,
			"target":34962
		},
		{
			"buffer":0,
			"byteLength":2304,
			"byteOffset":43344,
			"target":34962
		},
		{
			"buffer":0,
			"byteLength":1536,
			"byteOffset":45648,
			"target":34962
		},
		{
			"buffer":0,
			"byteLength":744,
			"byteOffset":47184,
			"target":34963
		},
		{
			"buffer":0,
			"byteLength":2304,
			"byteOffset":47928,
			"target":34962
		},
		{
			"buffer":0,
			"byteLength":2304,
			"byteOffset":50232,
			"target":34962
		},
		{
			"buffer":0,
			"byteLength":1536,
			"byteOffset":52536,
			"target":34962
		},
		{
			"buffer":0,
			"byteLength":2304,
			"byteOffset":54072,
			"target":34962
		},
		{
			"buffer":0,
			"byteLength":2304,
			"byteOffset":56376,
			"target":34962
		},
		{
			"buffer":0,
			"byteLength":1536,
			"byteOffset":58680,
			"target":34962
		},
		{
			"buffer":0,
			"byteLength":56832,
			"byteOffset":60216,
			"target":34962
		},
		{
			"buffer":0,
			"byteLength":56832,
			"byteOffset":117048,
			"target":34962
		},
		{
			"buffer":0,
			"byteLength":37888,
			"byteOffset":173880,
			"target":34962
		},
		{
			"buffer":0,
			"byteLength":9528,
			"byteOffset":211768,
			"target":34963
		},
		{
			"buffer":0,
			"byteLength":3900,
			"byteOffset":221296,
			"target":34962
		},
		{
			"buffer":0,
			"byteLength":3900,
			"byteOffset":225196,
			"target":34962
		},
		{
			"buffer":0,
			"byteLength":2600,
			"byteOffset":229096,
			"target":34962
		},
		{
			"buffer":0,
			"byteLength":1152,
			"byteOffset":231696,
			"target":34963
		},
		{
			"buffer":0,
			"byteLength":5352,
			"byteOffset":232848,
			"target":34962
		},
		{
			"buffer":0,
			"byteLength":5352,
			"byteOffset":238200,
			"target":34962
		},
		{
			"buffer":0,
			"byteLength":3568,
			"byteOffset":243552,
			"target":34962
		},
		{
			"buffer":0,
			"byteLength":1152,
			"byteOffset":247120,
			"target":34963
		},
		{
			"buffer":0,
			"byteLength":3900,
			"byteOffset":248272,
			"target":34962
		},
		{
			"buffer":0,
			"byteLength":3900,
			"byteOffset":252172,
			"target":34962
		},
		{
			"buffer":0,
			"byteLength":2600,
			"byteOffset":256072,
			"target":34962
		},
		{
			"buffer":0,
			"byteLength":1152,
			"byteOffset":258672,
			"target":34963
		},
		{
			"buffer":0,
			"byteLength":48,
			"byteOffset":259824,
			"target":34962
		},
		{
			"buffer":0,
			"byteLength":48,
			"byteOffset":259872,
			"target":34962
		},
		{
			"buffer":0,
			"byteLength":32,
			"byteOffset":259920,
			"target":34962
		},
		{
			"buffer":0,
			"byteLength":12,
			"byteOffset":259952,
			"target":34963
		},
		{
			"buffer":0,
			"byteLength":48,
			"byteOffset":259964,
			"target":34962
		},
		{
			"buffer":0,
			"byteLength":48,
			"byteOffset":260012,
			"target":34962
		},
		{
			"buffer":0,
			"byteLength":32,
			"byteOffset":260060,
			"target":34962
		},
		{
			"buffer":0,
			"byteLength":48,
			"byteOffset":260092,
			"target":34962
		},
		{
			"buffer":0,
			"byteLength":48,
			"byteOffset":260140,
			"target":34962
		},
		{
			"buffer":0,
			"byteLength":32,
			"byteOffset":260188,
			"target":34962
		},
		{
			"buffer":0,
			"byteLength":48,
			"byteOffset":260220,
			"target":34962
		},
		{
			"buffer":0,
			"byteLength":48,
			"byteOffset":260268,
			"target":34962
		},
		{
			"buffer":0,
			"byteLength":32,
			"byteOffset":260316,
			"target":34962
		},
		{
			"buffer":0,
			"byteLength":480,
			"byteOffset":260348,
			"target":34962
		},
		{
			"buffer":0,
			"byteLength":480,
			"byteOffset":260828,
			"target":34962
		},
		{
			"buffer":0,
			"byteLength":320,
			"byteOffset":261308,
			"target":34962
		},
		{
			"buffer":0,
			"byteLength":144,
			"byteOffset":261628,
			"target":34963
		},
		{
			"buffer":0,
			"byteLength":288,
			"byteOffset":261772,
			"target":34962
		},
		{
			"buffer":0,
			"byteLength":288,
			"byteOffset":262060,
			"target":34962
		},
		{
			"buffer":0,
			"byteLength":192,
			"byteOffset":262348,
			"target":34962
		},
		{
			"buffer":0,
			"byteLength":72,
			"byteOffset":262540,
			"target":34963
		},
		{
			"buffer":0,
			"byteLength":48,
			"byteOffset":262612,
			"target":34962
		},
		{
			"buffer":0,
			"byteLength":48,
			"byteOffset":262660,
			"target":34962
		},
		{
			"buffer":0,
			"byteLength":32,
			"byteOffset":262708,
			"target":34962
		},
		{
			"buffer":0,
			"byteLength":48,
			"byteOffset":262740,
			"target":34962
		},
		{
			"buffer":0,
			"byteLength":48,
			"byteOffset":262788,
			"target":34962
		},
		{
			"buffer":0,
			"byteLength":32,
			"byteOffset":262836,
			"target":34962
		},
		{
			"buffer":0,
			"byteLength":48,
			"byteOffset":262868,
			"target":34962
		},
		{
			"buffer":0,
			"byteLength":48,
			"byteOffset":262916,
			"target":34962
		},
		{
			"buffer":0,
			"byteLength":32,
			"byteOffset":262964,
			"target":34962
		},
		{
			"buffer":0,
			"byteLength":48,
			"byteOffset":262996,
			"target":34962
		},
		{
			"buffer":0,
			"byteLength":48,
			"byteOffset":263044,
			"target":34962
		},
		{
			"buffer":0,
			"byteLength":32,
			"byteOffset":263092,
			"target":34962
		},
		{
			"buffer":0,
			"byteLength":288,
			"byteOffset":263124,
			"target":34962
		},
		{
			"buffer":0,
			"byteLength":288,
			"byteOffset":263412,
			"target":34962
		},
		{
			"buffer":0,
			"byteLength":192,
			"byteOffset":263700,
			"target":34962
		},
		{
			"buffer":0,
			"byteLength":72,
			"byteOffset":263892,
			"target":34963
		},
		{
			"buffer":0,
			"byteLength":48,
			"byteOffset":263964,
			"target":34962
		},
		{
			"buffer":0,
			"byteLength":48,
			"byteOffset":264012,
			"target":34962
		},
		{
			"buffer":0,
			"byteLength":32,
			"byteOffset":264060,
			"target":34962
		},
		{
			"buffer":0,
			"byteLength":48,
			"byteOffset":264092,
			"target":34962
		},
		{
			"buffer":0,
			"byteLength":48,
			"byteOffset":264140,
			"target":34962
		},
		{
			"buffer":0,
			"byteLength":32,
			"byteOffset":264188,
			"target":34962
		},
		{
			"buffer":0,
			"byteLength":48,
			"byteOffset":264220,
			"target":34962
		},
		{
			"buffer":0,
			"byteLength":48,
			"byteOffset":264268,
			"target":34962
		},
		{
			"buffer":0,
			"byteLength":32,
			"byteOffset":264316,
			"target":34962
		},
		{
			"buffer":0,
			"byteLength":48,
			"byteOffset":264348,
			"target":34962
		},
		{
			"buffer":0,
			"byteLength":48,
			"byteOffset":264396,
			"target":34962
		},
		{
			"buffer":0,
			"byteLength":32,
			"byteOffset":264444,
			"target":34962
		},
		{
			"buffer":0,
			"byteLength":48,
			"byteOffset":264476,
			"target":34962
		},
		{
			"buffer":0,
			"byteLength":48,
			"byteOffset":264524,
			"target":34962
		},
		{
			"buffer":0,
			"byteLength":32,
			"byteOffset":264572,
			"target":34962
		},
		{
			"buffer":0,
			"byteLength":48,
			"byteOffset":264604,
			"target":34962
		},
		{
			"buffer":0,
			"byteLength":48,
			"byteOffset":264652,
			"target":34962
		},
		{
			"buffer":0,
			"byteLength":32,
			"byteOffset":264700,
			"target":34962
		},
		{
			"buffer":0,
			"byteLength":48,
			"byteOffset":264732,
			"target":34962
		},
		{
			"buffer":0,
			"byteLength":48,
			"byteOffset":264780,
			"target":34962
		},
		{
			"buffer":0,
			"byteLength":32,
			"byteOffset":264828,
			"target":34962
		},
		{
			"buffer":0,
			"byteLength":48,
			"byteOffset":264860,
			"target":34962
		},
		{
			"buffer":0,
			"byteLength":48,
			"byteOffset":264908,
			"target":34962
		},
		{
			"buffer":0,
			"byteLength":32,
			"byteOffset":264956,
			"target":34962
		},
		{
			"buffer":0,
			"byteLength":100476,
			"byteOffset":264988,
			"target":34962
		},
		{
			"buffer":0,
			"byteLength":100476,
			"byteOffset":365464,
			"target":34962
		},
		{
			"buffer":0,
			"byteLength":66984,
			"byteOffset":465940,
			"target":34962
		},
		{
			"buffer":0,
			"byteLength":16746,
			"byteOffset":532924,
			"target":34963
		},
		{
			"buffer":0,
			"byteLength":121812,
			"byteOffset":549672,
			"target":34962
		},
		{
			"buffer":0,
			"byteLength":121812,
			"byteOffset":671484,
			"target":34962
		},
		{
			"buffer":0,
			"byteLength":81208,
			"byteOffset":793296,
			"target":34962
		},
		{
			"buffer":0,
			"byteLength":21846,
			"byteOffset":874504,
			"target":34963
		},
		{
			"buffer":0,
			"byteLength":48,
			"byteOffset":896352,
			"target":34962
		},
		{
			"buffer":0,
			"byteLength":48,
			"byteOffset":896400,
			"target":34962
		},
		{
			"buffer":0,
			"byteLength":32,
			"byteOffset":896448,
			"target":34962
		},
		{
			"buffer":0,
			"byteLength":48,
			"byteOffset":896480,
			"target":34962
		},
		{
			"buffer":0,
			"byteLength":48,
			"byteOffset":896528,
			"target":34962
		},
		{
			"buffer":0,
			"byteLength":32,
			"byteOffset":896576,
			"target":34962
		},
		{
			"buffer":0,
			"byteLength":48,
			"byteOffset":896608,
			"target":34962
		},
		{
			"buffer":0,
			"byteLength":48,
			"byteOffset":896656,
			"target":34962
		},
		{
			"buffer":0,
			"byteLength":32,
			"byteOffset":896704,
			"target":34962
		},
		{
			"buffer":0,
			"byteLength":48,
			"byteOffset":896736,
			"target":34962
		},
		{
			"buffer":0,
			"byteLength":48,
			"byteOffset":896784,
			"target":34962
		},
		{
			"buffer":0,
			"byteLength":32,
			"byteOffset":896832,
			"target":34962
		},
		{
			"buffer":0,
			"byteLength":48,
			"byteOffset":896864,
			"target":34962
		},
		{
			"buffer":0,
			"byteLength":48,
			"byteOffset":896912,
			"target":34962
		},
		{
			"buffer":0,
			"byteLength":32,
			"byteOffset":896960,
			"target":34962
		},
		{
			"buffer":0,
			"byteLength":48,
			"byteOffset":896992,
			"target":34962
		},
		{
			"buffer":0,
			"byteLength":48,
			"byteOffset":897040,
			"target":34962
		},
		{
			"buffer":0,
			"byteLength":32,
			"byteOffset":897088,
			"target":34962
		},
		{
			"buffer":0,
			"byteLength":48,
			"byteOffset":897120,
			"target":34962
		},
		{
			"buffer":0,
			"byteLength":48,
			"byteOffset":897168,
			"target":34962
		},
		{
			"buffer":0,
			"byteLength":32,
			"byteOffset":897216,
			"target":34962
		},
		{
			"buffer":0,
			"byteLength":100452,
			"byteOffset":897248,
			"target":34962
		},
		{
			"buffer":0,
			"byteLength":100452,
			"byteOffset":997700,
			"target":34962
		},
		{
			"buffer":0,
			"byteLength":66968,
			"byteOffset":1098152,
			"target":34962
		},
		{
			"buffer":0,
			"byteLength":16746,
			"byteOffset":1165120,
			"target":34963
		},
		{
			"buffer":0,
			"byteLength":100452,
			"byteOffset":1181868,
			"target":34962
		},
		{
			"buffer":0,
			"byteLength":100452,
			"byteOffset":1282320,
			"target":34962
		},
		{
			"buffer":0,
			"byteLength":66968,
			"byteOffset":1382772,
			"target":34962
		},
		{
			"buffer":0,
			"byteLength":16746,
			"byteOffset":1449740,
			"target":34963
		},
		{
			"buffer":0,
			"byteLength":100452,
			"byteOffset":1466488,
			"target":34962
		},
		{
			"buffer":0,
			"byteLength":100452,
			"byteOffset":1566940,
			"target":34962
		},
		{
			"buffer":0,
			"byteLength":66968,
			"byteOffset":1667392,
			"target":34962
		},
		{
			"buffer":0,
			"byteLength":16746,
			"byteOffset":1734360,
			"target":34963
		},
		{
			"buffer":0,
			"byteLength":48,
			"byteOffset":1751108,
			"target":34962
		},
		{
			"buffer":0,
			"byteLength":48,
			"byteOffset":1751156,
			"target":34962
		},
		{
			"buffer":0,
			"byteLength":32,
			"byteOffset":1751204,
			"target":34962
		},
		{
			"buffer":0,
			"byteLength":12,
			"byteOffset":1751236,
			"target":34963
		},
		{
			"buffer":0,
			"byteLength":288,
			"byteOffset":1751248,
			"target":34962
		},
		{
			"buffer":0,
			"byteLength":288,
			"byteOffset":1751536,
			"target":34962
		},
		{
			"buffer":0,
			"byteLength":192,
			"byteOffset":1751824,
			"target":34962
		},
		{
			"buffer":0,
			"byteLength":288,
			"byteOffset":1752016,
			"target":34962
		},
		{
			"buffer":0,
			"byteLength":288,
			"byteOffset":1752304,
			"target":34962
		},
		{
			"buffer":0,
			"byteLength":192,
			"byteOffset":1752592,
			"target":34962
		},
		{
			"buffer":0,
			"byteLength":72,
			"byteOffset":1752784,
			"target":34963
		},
		{
			"buffer":0,
			"byteLength":288,
			"byteOffset":1752856,
			"target":34962
		},
		{
			"buffer":0,
			"byteLength":288,
			"byteOffset":1753144,
			"target":34962
		},
		{
			"buffer":0,
			"byteLength":192,
			"byteOffset":1753432,
			"target":34962
		},
		{
			"buffer":0,
			"byteLength":288,
			"byteOffset":1753624,
			"target":34962
		},
		{
			"buffer":0,
			"byteLength":288,
			"byteOffset":1753912,
			"target":34962
		},
		{
			"buffer":0,
			"byteLength":192,
			"byteOffset":1754200,
			"target":34962
		}
	],
	"buffers":[
		{
			"byteLength":1754392,
			"uri":"slums.bin"
		}
	]
}
