{
	"asset":{
		"generator":"Khronos glTF Blender I/O v5.1.20",
		"version":"2.0"
	},
	"scene":0,
	"scenes":[
		{
			"name":"Scene",
			"nodes":[
				0
			]
		}
	],
	"nodes":[
		{
			"mesh":0,
			"name":"Stanford dragon B007989 file stl free download 3D Model for CNC"
		}
	],
	"materials":[
		{
			"doubleSided":true,
			"name":"concrete_floor_poured"
		}
	],
	"meshes":[
		{
			"name":"Stanford dragon B007989 file stl free download 3D Model for CNC",
			"primitives":[
				{
					"attributes":{
						"POSITION":0,
						"NORMAL":1,
						"TEXCOORD_0":2
					},
					"indices":3,
					"material":0
				}
			]
		}
	],
	"accessors":[
		{
			"bufferView":0,
			"componentType":5126,
			"count":183128,
			"max":[
				0.8193203806877136,
				0.6790839433670044,
				0.35681018233299255
			],
			"min":[
				-0.9190800189971924,
				-0.5409191846847534,
				-0.42195236682891846
			],
			"type":"VEC3"
		},
		{
			"bufferView":1,
			"componentType":5126,
			"count":183128,
			"type":"VEC3"
		},
		{
			"bufferView":2,
			"componentType":5126,
			"count":183128,
			"type":"VEC2"
		},
		{
			"bufferView":3,
			"componentType":5125,
			"count":893916,
			"type":"SCALAR"
		}
	],
	"bufferViews":[
		{
			"buffer":0,
			"byteLength":2197536,
			"byteOffset":0,
			"target":34962
		},
		{
			"buffer":0,
			"byteLength":2197536,
			"byteOffset":2197536,
			"target":34962
		},
		{
			"buffer":0,
			"byteLength":1465024,
			"byteOffset":4395072,
			"target":34962
		},
		{
			"buffer":0,
			"byteLength":3575664,
			"byteOffset":5860096,
			"target":34963
		}
	],
	"buffers":[
		{
			"byteLength":9435760,
			"uri":"stanford_dragon.bin"
		}
	]
}
